<svg xmlns="http://www.w3.org/2000/svg" xmlns:xlink="http://www.w3.org/1999/xlink" width="912" zoomAndPan="magnify" viewBox="0 0 684 683.999997" height="912" preserveAspectRatio="xMidYMid meet" version="1.0"><defs><clipPath id="id1"><path d="M 227 177 L 468 177 L 468 472 L 227 472 Z M 227 177 " clip-rule="nonzero"/></clipPath><clipPath id="id2"><path d="M 102.839844 129.132812 L 375.234375 28.898438 L 573.113281 566.644531 L 300.71875 666.878906 Z M 102.839844 129.132812 " clip-rule="nonzero"/></clipPath><clipPath id="id3"><path d="M 102.839844 129.132812 L 375.234375 28.898438 L 573.113281 566.644531 L 300.71875 666.878906 Z M 102.839844 129.132812 " clip-rule="nonzero"/></clipPath><clipPath id="id4"><path d="M 232 233 L 348 233 L 348 667 L 232 667 Z M 232 233 " clip-rule="nonzero"/></clipPath><clipPath id="id5"><path d="M 102.839844 129.132812 L 375.234375 28.898438 L 573.113281 566.644531 L 300.71875 666.878906 Z M 102.839844 129.132812 " clip-rule="nonzero"/></clipPath><clipPath id="id6"><path d="M 102.839844 129.132812 L 375.234375 28.898438 L 573.113281 566.644531 L 300.71875 666.878906 Z M 102.839844 129.132812 " clip-rule="nonzero"/></clipPath><clipPath id="id7"><path d="M 235 66 L 330 66 L 330 161 L 235 161 Z M 235 66 " clip-rule="nonzero"/></clipPath><clipPath id="id8"><path d="M 102.839844 129.132812 L 375.234375 28.898438 L 573.113281 566.644531 L 300.71875 666.878906 Z M 102.839844 129.132812 " clip-rule="nonzero"/></clipPath><clipPath id="id9"><path d="M 102.839844 129.132812 L 375.234375 28.898438 L 573.113281 566.644531 L 300.71875 666.878906 Z M 102.839844 129.132812 " clip-rule="nonzero"/></clipPath></defs><path fill="rgb(100%, 100%, 100%)" d="M 342 0 C 153.421875 0 0 153.421875 0 342 C 0 530.578125 153.421875 684 342 684 C 530.578125 684 684 530.578125 684 342 C 684 153.421875 530.578125 0 342 0 Z M 342 0 " fill-opacity="1" fill-rule="nonzero"/><g clip-path="url(#id1)"><g clip-path="url(#id2)"><g clip-path="url(#id3)"><path fill="rgb(100%, 8.628845%, 8.628845%)" d="M 253.570312 192.703125 C 327.765625 156.976562 416.863281 188.285156 452.539062 262.328125 C 488.253906 336.480469 457 425.507812 382.800781 461.234375 C 373.367188 465.804688 363.644531 469.261719 353.777344 471.671875 C 408.5625 429.65625 428.355469 353.636719 397.355469 288.984375 C 366.210938 224.261719 294.46875 192.304688 227.515625 208.882812 C 235.230469 202.625 243.988281 197.207031 253.570312 192.703125 Z M 253.570312 192.703125 " fill-opacity="1" fill-rule="evenodd"/></g></g></g><g clip-path="url(#id4)"><g clip-path="url(#id5)"><g clip-path="url(#id6)"><path fill="rgb(9.799194%, 3.919983%, 76.858521%)" d="M 332.714844 248.429688 C 360.296875 392.113281 349.648438 612.492188 300.863281 666.828125 C 321.5625 581.316406 280.367188 341.554688 232.175781 237.8125 C 266.445312 229.351562 301.972656 233.617188 332.714844 248.429688 Z M 332.714844 248.429688 " fill-opacity="1" fill-rule="evenodd"/></g></g></g><g clip-path="url(#id7)"><g clip-path="url(#id8)"><g clip-path="url(#id9)"><path fill="rgb(0%, 50.19989%, 21.569824%)" d="M 298.648438 157.191406 C 322.964844 148.242188 335.484375 121.171875 326.539062 96.871094 C 317.597656 72.570312 290.519531 60.070312 266.203125 69.015625 C 241.886719 77.964844 229.371094 105.035156 238.3125 129.335938 C 247.257812 153.636719 274.332031 166.136719 298.648438 157.191406 Z M 298.648438 157.191406 " fill-opacity="1" fill-rule="evenodd"/></g></g></g></svg>