<svg xmlns="http://www.w3.org/2000/svg" xmlns:xlink="http://www.w3.org/1999/xlink" width="512" zoomAndPan="magnify" viewBox="0 0 384 383.999986" height="512" preserveAspectRatio="xMidYMid meet" version="1.0"><defs><clipPath id="id1"><path d="M 127 99 L 263 99 L 263 265 L 127 265 Z M 127 99 " clip-rule="nonzero"/></clipPath><clipPath id="id2"><path d="M 57.734375 72.492188 L 210.472656 16.289062 L 321.585938 318.246094 L 168.847656 374.449219 Z M 57.734375 72.492188 " clip-rule="nonzero"/></clipPath><clipPath id="id3"><path d="M 57.734375 72.492188 L 210.472656 16.289062 L 321.585938 318.246094 L 168.847656 374.449219 Z M 57.734375 72.492188 " clip-rule="nonzero"/></clipPath><clipPath id="id4"><path d="M 130 131 L 196 131 L 196 375 L 130 375 Z M 130 131 " clip-rule="nonzero"/></clipPath><clipPath id="id5"><path d="M 57.734375 72.492188 L 210.472656 16.289062 L 321.585938 318.246094 L 168.847656 374.449219 Z M 57.734375 72.492188 " clip-rule="nonzero"/></clipPath><clipPath id="id6"><path d="M 57.734375 72.492188 L 210.472656 16.289062 L 321.585938 318.246094 L 168.847656 374.449219 Z M 57.734375 72.492188 " clip-rule="nonzero"/></clipPath><clipPath id="id7"><path d="M 132 37 L 185 37 L 185 90 L 132 90 Z M 132 37 " clip-rule="nonzero"/></clipPath><clipPath id="id8"><path d="M 57.734375 72.492188 L 210.472656 16.289062 L 321.585938 318.246094 L 168.847656 374.449219 Z M 57.734375 72.492188 " clip-rule="nonzero"/></clipPath><clipPath id="id9"><path d="M 57.734375 72.492188 L 210.472656 16.289062 L 321.585938 318.246094 L 168.847656 374.449219 Z M 57.734375 72.492188 " clip-rule="nonzero"/></clipPath></defs><path fill="rgb(100%, 100%, 100%)" d="M 192 0 C 86.132812 0 0 86.132812 0 192 C 0 297.867188 86.132812 384 192 384 C 297.867188 384 384 297.867188 384 192 C 384 86.132812 297.867188 0 192 0 Z M 192 0 " fill-opacity="1" fill-rule="nonzero"/><g clip-path="url(#id1)"><g clip-path="url(#id2)"><g clip-path="url(#id3)"><path fill="rgb(100%, 8.628845%, 8.628845%)" d="M 142.28125 108.222656 C 183.886719 88.183594 233.859375 105.785156 253.886719 147.363281 C 273.9375 189.003906 256.429688 238.976562 214.828125 259.015625 C 209.539062 261.582031 204.085938 263.519531 198.554688 264.867188 C 229.269531 241.292969 240.347656 198.621094 222.945312 162.316406 C 205.464844 125.96875 165.21875 108.007812 127.675781 117.300781 C 132 113.789062 136.910156 110.75 142.28125 108.222656 Z M 142.28125 108.222656 " fill-opacity="1" fill-rule="evenodd"/></g></g></g><g clip-path="url(#id4)"><g clip-path="url(#id5)"><g clip-path="url(#id6)"><path fill="rgb(9.799194%, 3.919983%, 76.858521%)" d="M 186.683594 139.53125 C 202.191406 220.203125 196.273438 343.929688 168.929688 374.417969 C 180.515625 326.417969 157.351562 191.800781 130.296875 133.542969 C 149.511719 128.804688 169.441406 131.203125 186.683594 139.53125 Z M 186.683594 139.53125 " fill-opacity="1" fill-rule="evenodd"/></g></g></g><g clip-path="url(#id7)"><g clip-path="url(#id8)"><g clip-path="url(#id9)"><path fill="rgb(0%, 50.19989%, 21.569824%)" d="M 167.554688 88.296875 C 181.191406 83.28125 188.203125 68.085938 183.183594 54.441406 C 178.160156 40.792969 162.972656 33.769531 149.335938 38.785156 C 135.703125 43.804688 128.691406 59 133.710938 72.644531 C 138.734375 86.289062 153.921875 93.3125 167.554688 88.296875 Z M 167.554688 88.296875 " fill-opacity="1" fill-rule="evenodd"/></g></g></g></svg>