<svg xmlns="http://www.w3.org/2000/svg" xmlns:xlink="http://www.w3.org/1999/xlink" width="912" zoomAndPan="magnify" viewBox="0 0 684 683.999997" height="912" preserveAspectRatio="xMidYMid meet" version="1.0"><defs><clipPath id="id1"><path d="M 203 163 L 474 163 L 474 471 L 203 471 Z M 203 163 " clip-rule="nonzero"/></clipPath><clipPath id="id2"><path d="M 61.515625 141.457031 L 336.222656 -0.0234375 L 615.75 542.71875 L 341.042969 684.203125 Z M 61.515625 141.457031 " clip-rule="nonzero"/></clipPath><clipPath id="id3"><path d="M 61.515625 141.457031 L 336.222656 -0.0234375 L 615.75 542.71875 L 341.042969 684.203125 Z M 61.515625 141.457031 " clip-rule="nonzero"/></clipPath><clipPath id="id4"><path d="M 212 229 L 367 229 L 367 684 L 212 684 Z M 212 229 " clip-rule="nonzero"/></clipPath><clipPath id="id5"><path d="M 61.515625 141.457031 L 336.222656 -0.0234375 L 615.75 542.71875 L 341.042969 684.203125 Z M 61.515625 141.457031 " clip-rule="nonzero"/></clipPath><clipPath id="id6"><path d="M 61.515625 141.457031 L 336.222656 -0.0234375 L 615.75 542.71875 L 341.042969 684.203125 Z M 61.515625 141.457031 " clip-rule="nonzero"/></clipPath><clipPath id="id7"><path d="M 199 51 L 300 51 L 300 152 L 199 152 Z M 199 51 " clip-rule="nonzero"/></clipPath><clipPath id="id8"><path d="M 61.515625 141.457031 L 336.222656 -0.0234375 L 615.75 542.71875 L 341.042969 684.203125 Z M 61.515625 141.457031 " clip-rule="nonzero"/></clipPath><clipPath id="id9"><path d="M 61.515625 141.457031 L 336.222656 -0.0234375 L 615.75 542.71875 L 341.042969 684.203125 Z M 61.515625 141.457031 " clip-rule="nonzero"/></clipPath></defs><g clip-path="url(#id1)"><g clip-path="url(#id2)"><g clip-path="url(#id3)"><path fill="rgb(100%, 8.628845%, 8.628845%)" d="M 229.113281 189.019531 C 302.839844 141.574219 401.085938 163.066406 448.480469 236.699219 C 495.933594 310.4375 474.570312 408.636719 400.84375 456.082031 C 391.472656 462.144531 381.652344 467.066406 371.542969 470.898438 C 423.929688 419.339844 434.886719 336.386719 393.664062 272.070312 C 352.273438 207.703125 272.28125 183.265625 203.703125 209.523438 C 211.035156 201.902344 219.578125 195.03125 229.113281 189.019531 Z M 229.113281 189.019531 " fill-opacity="1" fill-rule="evenodd"/></g></g></g><g clip-path="url(#id4)"><g clip-path="url(#id5)"><g clip-path="url(#id6)"><path fill="rgb(0%, 29.019165%, 67.83905%)" d="M 320.042969 237.621094 C 368.011719 385.933594 385.625 620.324219 341.191406 684.128906 C 351.863281 591.023438 276.929688 342.902344 212.417969 239.5 C 247.519531 226.089844 285.621094 225.964844 320.042969 237.621094 Z M 320.042969 237.621094 " fill-opacity="1" fill-rule="evenodd"/></g></g></g><g clip-path="url(#id7)"><g clip-path="url(#id8)"><g clip-path="url(#id9)"><path fill="rgb(0%, 50.19989%, 21.569824%)" d="M 272.097656 145.597656 C 296.621094 132.96875 306.300781 102.714844 293.671875 78.1875 C 281.039062 53.660156 250.789062 43.976562 226.265625 56.605469 C 201.742188 69.234375 192.0625 99.488281 204.695312 124.015625 C 217.328125 148.539062 247.578125 158.226562 272.097656 145.597656 Z M 272.097656 145.597656 " fill-opacity="1" fill-rule="evenodd"/></g></g></g></svg>