<svg xmlns="http://www.w3.org/2000/svg" xmlns:xlink="http://www.w3.org/1999/xlink" width="500" zoomAndPan="magnify" viewBox="0 0 375 374.999991" height="500" preserveAspectRatio="xMidYMid meet" version="1.0"><defs><g/></defs><g fill="rgb(0%, 29.019165%, 67.83905%)" fill-opacity="1"><g transform="translate(97.317272, 307.077818)"><g><path d="M -46.359375 -87.539062 L 4.53125 -2.71875 L 30.949219 -18.570312 L 12.070312 -50.035156 L 76.273438 -40.480469 L 78.34375 -41.722656 L 27.0625 -127.191406 L 0.648438 -111.339844 L 20.304688 -78.578125 L -44.546875 -88.625 Z M -46.359375 -87.539062 "/></g></g></g><g fill="rgb(0%, 29.019165%, 67.83905%)" fill-opacity="1"><g transform="translate(194.565763, 248.727823)"><g><path d="M 8.15625 -115.847656 L -44.933594 -83.992188 L 4.015625 -2.410156 L 56.332031 -33.796875 L 43.742188 -56.539062 L 17.066406 -40.53125 L 11.785156 -49.335938 L 31.855469 -61.382812 L 21.910156 -79.71875 L 1.0625 -67.207031 L -5.15625 -77.566406 L 20.746094 -93.105469 Z M 8.15625 -115.847656 "/></g></g></g><g fill="rgb(0%, 29.019165%, 67.83905%)" fill-opacity="1"><g transform="translate(273.038132, 201.643675)"><g><path d="M -47.371094 -75.132812 L 33.253906 -12.378906 L 34.289062 -13 L 36.671875 -61.277344 L 80.519531 -40.738281 L 81.554688 -41.363281 L 64.125 -142.03125 L 29.601562 -133.820312 L 39.804688 -93.625 L 10.667969 -105.203125 L 7.691406 -74.355469 L -23.492188 -101.964844 Z M -47.371094 -75.132812 "/></g></g></g><path stroke-linecap="butt" transform="matrix(0.638818, -0.383297, 0.383297, 0.638818, 25.591204, 219.829894)" fill="none" stroke-linejoin="miter" d="M 20.418478 8.218849 L 20.420271 140.996858 L 61.791271 140.999837 L 61.795204 91.759651 L 129.100599 147.088101 L 132.318054 147.086325 L 132.317167 13.318261 L 90.992926 13.318879 L 90.995274 64.586835 L 23.292425 8.218869 Z M 254.956326 13.317298 L 171.860926 13.31943 L 171.861855 141.003285 L 253.764872 141.001145 L 254.955694 106.109124 L 213.233993 106.109739 L 213.234086 92.351478 L 244.610115 92.349894 L 245.848549 64.390059 L 213.233378 64.388038 L 213.235287 48.160484 L 253.767303 48.155365 Z M 285.792757 21.827847 L 335.235299 149.70987 L 336.867407 149.71078 L 372.942294 95.813713 L 409.219673 149.707676 L 410.85178 149.708587 L 460.292468 21.825438 L 414.913685 7.426615 L 398.875506 60.724929 L 373.34202 27.274196 L 348.647063 60.727285 L 331.818285 7.428746 Z M 285.792757 21.827847 " stroke="rgb(100%, 34.118652%, 34.118652%)" stroke-width="7.60185" stroke-opacity="1" stroke-miterlimit="4"/></svg>