<svg xmlns="http://www.w3.org/2000/svg" xmlns:xlink="http://www.w3.org/1999/xlink" width="512" zoomAndPan="magnify" viewBox="0 0 384 383.999986" height="512" preserveAspectRatio="xMidYMid meet" version="1.0"><defs><clipPath id="id1"><path d="M 114 92 L 266 92 L 266 265 L 114 265 Z M 114 92 " clip-rule="nonzero"/></clipPath><clipPath id="id2"><path d="M 34.535156 79.414062 L 188.558594 0.0859375 L 345.492188 304.796875 L 191.472656 384.125 Z M 34.535156 79.414062 " clip-rule="nonzero"/></clipPath><clipPath id="id3"><path d="M 34.535156 79.414062 L 188.558594 0.0859375 L 345.492188 304.796875 L 191.472656 384.125 Z M 34.535156 79.414062 " clip-rule="nonzero"/></clipPath><clipPath id="id4"><path d="M 119 128 L 206 128 L 206 384 L 119 384 Z M 119 128 " clip-rule="nonzero"/></clipPath><clipPath id="id5"><path d="M 34.535156 79.414062 L 188.558594 0.0859375 L 345.492188 304.796875 L 191.472656 384.125 Z M 34.535156 79.414062 " clip-rule="nonzero"/></clipPath><clipPath id="id6"><path d="M 34.535156 79.414062 L 188.558594 0.0859375 L 345.492188 304.796875 L 191.472656 384.125 Z M 34.535156 79.414062 " clip-rule="nonzero"/></clipPath><clipPath id="id7"><path d="M 111 28 L 168 28 L 168 85 L 111 85 Z M 111 28 " clip-rule="nonzero"/></clipPath><clipPath id="id8"><path d="M 34.535156 79.414062 L 188.558594 0.0859375 L 345.492188 304.796875 L 191.472656 384.125 Z M 34.535156 79.414062 " clip-rule="nonzero"/></clipPath><clipPath id="id9"><path d="M 34.535156 79.414062 L 188.558594 0.0859375 L 345.492188 304.796875 L 191.472656 384.125 Z M 34.535156 79.414062 " clip-rule="nonzero"/></clipPath></defs><g clip-path="url(#id1)"><g clip-path="url(#id2)"><g clip-path="url(#id3)"><path fill="rgb(100%, 8.628845%, 8.628845%)" d="M 128.546875 106.160156 C 169.878906 79.550781 224.984375 91.644531 251.589844 132.988281 C 278.226562 174.390625 266.273438 229.5 224.941406 256.105469 C 219.6875 259.503906 214.179688 262.265625 208.511719 264.414062 C 237.875 235.488281 243.996094 188.933594 220.855469 152.824219 C 197.625 116.683594 152.753906 102.945312 114.300781 117.660156 C 118.410156 113.382812 123.199219 109.53125 128.546875 106.160156 Z M 128.546875 106.160156 " fill-opacity="1" fill-rule="evenodd"/></g></g></g><g clip-path="url(#id4)"><g clip-path="url(#id5)"><g clip-path="url(#id6)"><path fill="rgb(0%, 29.019165%, 67.83905%)" d="M 179.558594 133.464844 C 206.503906 216.722656 216.453125 348.285156 191.554688 384.082031 C 197.511719 331.828125 155.410156 192.542969 119.195312 134.488281 C 138.878906 126.972656 160.25 126.914062 179.558594 133.464844 Z M 179.558594 133.464844 " fill-opacity="1" fill-rule="evenodd"/></g></g></g><g clip-path="url(#id7)"><g clip-path="url(#id8)"><g clip-path="url(#id9)"><path fill="rgb(0%, 50.19989%, 21.569824%)" d="M 152.640625 81.800781 C 166.390625 74.71875 171.808594 57.742188 164.71875 43.972656 C 157.625 30.203125 140.65625 24.757812 126.910156 31.839844 C 113.160156 38.917969 107.738281 55.894531 114.832031 69.667969 C 121.921875 83.4375 138.890625 88.882812 152.640625 81.800781 Z M 152.640625 81.800781 " fill-opacity="1" fill-rule="evenodd"/></g></g></g></svg>