<svg xmlns="http://www.w3.org/2000/svg" xmlns:xlink="http://www.w3.org/1999/xlink" width="1080" zoomAndPan="magnify" viewBox="0 0 810 809.999993" height="1080" preserveAspectRatio="xMidYMid meet" version="1.0"><defs><clipPath id="id1"><path d="M 129.613281 432 L 388 432 L 388 690 L 129.613281 690 Z M 129.613281 432 " clip-rule="nonzero"/></clipPath><clipPath id="id2"><path d="M 454 432 L 711.445312 432 L 711.445312 690 L 454 690 Z M 454 432 " clip-rule="nonzero"/></clipPath></defs><path fill="rgb(27.449036%, 52.159119%, 70.588684%)" d="M 802.214844 455.433594 C 796.503906 444.445312 786.15625 436.125 775.988281 429.4375 C 765.816406 422.75 754.246094 416.816406 742.25 414.15625 C 719.90625 409.246094 696.59375 410.75 673.996094 408.855469 C 664.46875 408.0625 654.832031 406.535156 645.019531 402.78125 C 645.144531 402.78125 642.929688 401.808594 642.910156 401.808594 C 641.882812 401.304688 640.882812 400.730469 639.890625 400.167969 C 638.898438 399.605469 637.949219 398.972656 636.976562 398.34375 L 636.453125 397.984375 C 636.304688 397.859375 636.101562 397.671875 635.78125 397.421875 C 631.59375 393.898438 629.660156 390.78125 627.242188 387.304688 C 622.386719 380.308594 621.558594 371.929688 622.746094 364.320312 C 624.464844 353.234375 628.632812 343.574219 633.539062 333.914062 C 643.628906 314.023438 657.125 296.238281 668.617188 277.195312 C 674.890625 266.789062 678.195312 253.34375 681.359375 241.675781 C 684.488281 230.519531 686.253906 219.152344 686.65625 207.570312 C 687.1875 185.640625 678.746094 165.015625 662.496094 150.210938 C 642.648438 132.125 616.34375 123.621094 590.171875 120.3125 C 567.054688 117.398438 543.089844 121.445312 524.699219 136.347656 C 506.308594 151.25 499.625 178.214844 500.171875 200.796875 C 500.78125 226.230469 509.582031 250.933594 514.976562 275.542969 C 520.035156 298.6875 522.496094 323.167969 510.03125 344.261719 C 507.230469 349.027344 503.75 353.234375 499.597656 356.882812 C 500.121094 356.367188 497.714844 358.183594 497.769531 358.144531 C 496.984375 358.636719 496.171875 359.082031 495.332031 359.484375 C 496.46875 358.890625 494.042969 359.871094 493.738281 359.960938 C 493.4375 360.046875 492.953125 360.136719 492.566406 360.222656 L 492 360.222656 C 491.355469 360.257812 490.707031 360.257812 490.058594 360.222656 C 491.03125 360.222656 488.84375 359.988281 488.386719 359.871094 C 487.625 359.675781 486.878906 359.4375 486.144531 359.15625 C 487.378906 359.582031 484.871094 358.523438 484.589844 358.386719 C 482.773438 357.40625 481.035156 356.292969 479.382812 355.058594 C 480.355469 355.71875 477.78125 353.6875 477.769531 353.6875 C 476.535156 352.621094 475.359375 351.484375 474.195312 350.339844 C 458.652344 335.128906 448.191406 314.605469 436.621094 295.824219 C 430.792969 286.328125 423.242188 277.503906 416.367188 268.738281 C 408.933594 259.097656 400.898438 249.988281 392.253906 241.410156 C 375.847656 225.367188 354.011719 210.132812 329.898438 212.203125 C 303.90625 214.433594 279.773438 236.140625 273.335938 261.175781 C 267.183594 285.046875 278.636719 309.238281 292.578125 328.03125 C 317.273438 361.339844 351.582031 383.910156 382.230469 411.050781 C 398.367188 425.339844 413.636719 440.25 423.925781 458.335938 C 425.050781 460.277344 426.0625 462.355469 427.023438 464.414062 C 427.109375 464.597656 427.1875 464.753906 427.246094 464.886719 C 427.304688 465.023438 427.402344 465.316406 427.546875 465.675781 C 427.9375 466.644531 428.277344 467.675781 428.605469 468.683594 C 429.246094 470.644531 429.765625 472.640625 430.160156 474.664062 C 430.160156 474.859375 430.304688 475.632812 430.375 476.160156 C 430.472656 477.238281 430.511719 478.324219 430.519531 479.410156 C 430.53125 480.5 430.460938 481.351562 430.402344 482.324219 C 430.398438 482.375 430.398438 482.425781 430.402344 482.476562 L 430.285156 483.042969 C 429.953125 484.695312 429.492188 486.3125 428.898438 487.894531 C 429.257812 486.816406 428.167969 489.207031 427.976562 489.507812 L 427.671875 489.960938 C 427.546875 490.097656 427.34375 490.3125 427.042969 490.660156 C 426.3125 491.460938 425.542969 492.21875 424.730469 492.933594 L 424.339844 493.261719 C 423.835938 493.613281 423.371094 493.953125 422.816406 494.234375 C 421.914062 494.808594 420.960938 495.28125 420.007812 495.769531 L 419.640625 495.960938 C 419.457031 495.960938 419.191406 496.109375 418.792969 496.253906 C 416.683594 496.988281 414.527344 497.558594 412.324219 497.960938 C 412.238281 497.960938 410.382812 498.242188 410.082031 498.300781 C 409.109375 498.398438 408.136719 498.464844 407.226562 498.523438 C 404.3125 498.710938 401.398438 498.671875 398.484375 498.523438 C 387.476562 498.144531 378.082031 496.222656 366.765625 493.953125 C 355.449219 491.679688 344.421875 489.253906 333.046875 487.730469 C 323.253906 486.457031 313.515625 486.78125 303.828125 488.699219 C 280.511719 493 258.101562 505.039062 243.8125 524.09375 C 228.433594 544.867188 231.464844 574.613281 246.570312 594.5625 C 277.074219 634.828125 332.824219 623.683594 376.390625 621.414062 C 394.847656 620.441406 413.230469 619.625 431.519531 621.0625 C 441.378906 624.695312 450.882812 628.683594 459.75 632.554688 C 482.09375 642.332031 503.726562 653.59375 525.855469 663.835938 C 546.984375 673.609375 567.480469 684.402344 590.386719 689.609375 C 614.789062 695.152344 640.125 693.179688 659.667969 676.296875 C 662.050781 674.222656 664.257812 671.976562 666.292969 669.558594 C 668.328125 667.140625 670.164062 664.582031 671.800781 661.878906 C 673.441406 659.175781 674.863281 656.367188 676.066406 653.445312 C 677.269531 650.523438 678.242188 647.527344 678.980469 644.457031 C 681.75 632.332031 680.390625 619.878906 678.183594 607.800781 C 676.152344 596.667969 672.929688 585.796875 670.859375 574.671875 C 670.464844 572.847656 670.199219 571.007812 670.054688 569.148438 C 669.835938 566.820312 669.746094 564.484375 669.789062 562.148438 C 669.804688 558.757812 670.589844 555.558594 672.152344 552.546875 C 672.238281 552.382812 673.917969 550.023438 673.121094 551.03125 C 673.6875 550.332031 674.597656 549.179688 675.066406 548.625 C 675.53125 548.070312 676.035156 547.65625 676.492188 547.207031 L 676.707031 547.003906 L 677.097656 546.742188 C 677.894531 546.207031 678.71875 545.714844 679.574219 545.265625 C 679.777344 545.148438 681.203125 544.488281 681.351562 544.394531 C 683.378906 543.628906 685.445312 542.980469 687.546875 542.453125 C 691.566406 541.394531 695.652344 540.726562 699.796875 540.453125 C 705.480469 539.886719 711.183594 539.617188 716.875 539.34375 C 738.246094 538.296875 763.183594 538.472656 781.496094 525.707031 C 793.0625 517.628906 801.640625 504.019531 805.9375 490.757812 C 809.695312 478.925781 807.886719 466.324219 802.214844 455.433594 Z M 802.214844 455.433594 " fill-opacity="1" fill-rule="nonzero"/><path fill="rgb(27.449036%, 52.159119%, 70.588684%)" d="M 657.6875 533.21875 L 657.453125 533.492188 Z M 657.6875 533.21875 " fill-opacity="1" fill-rule="nonzero"/><path fill="rgb(36.079407%, 71.369934%, 97.648621%)" d="M 575.945312 423.28125 C 570.230469 444.347656 556.15625 462.773438 537.476562 473.777344 C 524.507812 481.367188 510.433594 485.289062 495.335938 485.289062 C 466.25 487.167969 437.246094 489.8125 408.160156 492.027344 C 412.167969 493.136719 416.179688 494.332031 420.101562 495.78125 C 437.332031 501.839844 451.40625 511.222656 460.789062 527.339844 C 470.089844 543.292969 472.5625 562.65625 467.699219 580.394531 C 463.09375 597.710938 451.664062 612.636719 436.394531 621.679688 C 426.585938 627.394531 416.09375 630.464844 404.917969 630.890625 C 390.84375 633.878906 376.941406 637.886719 362.867188 641.382812 C 343.929688 646.246094 324.738281 650.851562 305.375 653.921875 C 261.871094 660.746094 216.40625 665.265625 174.097656 649.742188 C 158.0625 643.941406 145.09375 635.582031 136.222656 620.316406 C 133.238281 615.28125 131.191406 609.824219 129.65625 604.277344 C 126.074219 603.425781 122.320312 602.488281 118.824219 601.550781 C 90.675781 593.703125 63.121094 582.1875 37.703125 567.6875 C 14.414062 554.464844 0 528.195312 0 501.328125 C 0 479.746094 8.699219 462.859375 22.261719 446.90625 C 37.53125 428.996094 55.871094 415.089844 75.660156 403.578125 C 62.355469 388.308594 55.273438 366.8125 55.273438 346.855469 C 55.273438 324.847656 63.976562 299.601562 80.695312 284.589844 C 94.085938 272.5625 108.332031 260.875 123.941406 251.578125 C 138.1875 243.132812 153.453125 236.820312 168.808594 230.425781 C 190.476562 221.554688 213.164062 215.839844 236.109375 212.085938 C 279.441406 205.347656 323.03125 202.449219 366.535156 197.839844 C 367.984375 194.003906 369.691406 190.421875 371.652344 186.921875 C 381.800781 169.609375 398.351562 156.644531 417.542969 151.355469 C 431.191406 147.601562 444.753906 147.601562 458.402344 151.355469 C 460.789062 152.378906 463.179688 153.402344 465.652344 154.425781 C 464.714844 154 463.691406 153.574219 462.753906 153.144531 C 482.710938 160.3125 501.308594 168.925781 516.492188 184.195312 C 523.996094 191.957031 532.1875 200.570312 536.707031 210.464844 C 541.058594 219.59375 544.980469 228.976562 548.308594 238.527344 C 555.558594 258.574219 550.527344 284.332031 540.121094 302.160156 C 535.769531 309.496094 530.738281 315.976562 524.765625 321.4375 C 542.507812 327.832031 558.203125 342.164062 567.414062 358.113281 C 578.761719 377.644531 581.832031 401.445312 575.945312 423.28125 Z M 575.945312 423.28125 " fill-opacity="1" fill-rule="nonzero"/><path fill="rgb(20.779419%, 20.388794%, 20.388794%)" d="M 421.128906 406.230469 C 492.121094 406.230469 549.882812 348.472656 549.882812 277.476562 C 549.882812 206.484375 492.117188 148.730469 421.128906 148.730469 C 350.140625 148.730469 292.375 206.488281 292.375 277.484375 C 292.375 348.480469 350.132812 406.230469 421.128906 406.230469 Z M 421.128906 406.230469 " fill-opacity="1" fill-rule="nonzero"/><g clip-path="url(#id1)"><path fill="rgb(20.779419%, 20.388794%, 20.388794%)" d="M 387.292969 560.84375 C 387.292969 489.855469 329.535156 432.089844 258.539062 432.089844 C 187.546875 432.089844 129.792969 489.855469 129.792969 560.84375 C 129.792969 631.832031 187.546875 689.597656 258.539062 689.597656 C 329.535156 689.597656 387.292969 631.832031 387.292969 560.84375 Z M 387.292969 560.84375 " fill-opacity="1" fill-rule="nonzero"/></g><g clip-path="url(#id2)"><path fill="rgb(20.779419%, 20.388794%, 20.388794%)" d="M 583.066406 432.089844 C 512.078125 432.089844 454.324219 489.855469 454.324219 560.84375 C 454.324219 631.832031 512.070312 689.597656 583.066406 689.597656 C 654.058594 689.597656 711.820312 631.839844 711.820312 560.84375 C 711.820312 489.847656 654.058594 432.089844 583.066406 432.089844 Z M 583.066406 432.089844 " fill-opacity="1" fill-rule="nonzero"/></g><path fill="rgb(100%, 58.428955%, 33.329773%)" d="M 421.128906 164.355469 C 483.503906 164.355469 534.257812 215.101562 534.257812 277.484375 C 534.257812 339.867188 483.503906 390.613281 421.128906 390.613281 C 358.75 390.613281 308 339.867188 308 277.484375 C 308 215.101562 358.746094 164.355469 421.128906 164.355469 Z M 421.128906 164.355469 " fill-opacity="1" fill-rule="nonzero"/><path fill="rgb(100%, 58.428955%, 33.329773%)" d="M 258.539062 673.964844 C 196.171875 673.964844 145.417969 623.214844 145.417969 560.835938 C 145.417969 498.453125 196.164062 447.707031 258.539062 447.707031 C 320.917969 447.707031 371.667969 498.449219 371.667969 560.835938 C 371.667969 623.214844 320.917969 673.964844 258.539062 673.964844 Z M 258.539062 673.964844 " fill-opacity="1" fill-rule="nonzero"/><path fill="rgb(100%, 58.428955%, 33.329773%)" d="M 583.066406 673.964844 C 520.695312 673.964844 469.949219 623.214844 469.949219 560.835938 C 469.949219 498.453125 520.6875 447.707031 583.066406 447.707031 C 645.449219 447.707031 696.195312 498.449219 696.195312 560.835938 C 696.195312 623.214844 645.453125 673.964844 583.066406 673.964844 Z M 583.066406 673.964844 " fill-opacity="1" fill-rule="nonzero"/><path fill="rgb(20.779419%, 20.388794%, 20.388794%)" d="M 421.128906 274.003906 C 441.464844 274.003906 458.007812 257.460938 458.007812 237.125 C 458.007812 216.78125 441.46875 200.238281 421.128906 200.238281 C 400.785156 200.238281 384.242188 216.78125 384.242188 237.125 C 384.238281 257.453125 400.785156 274.003906 421.128906 274.003906 Z M 421.128906 274.003906 " fill-opacity="1" fill-rule="nonzero"/><path fill="rgb(100%, 100%, 100%)" d="M 421.128906 215.859375 C 432.847656 215.859375 442.382812 225.394531 442.382812 237.117188 C 442.382812 248.84375 432.851562 258.375 421.128906 258.375 C 409.402344 258.375 399.867188 248.84375 399.867188 237.117188 C 399.867188 225.394531 409.402344 215.859375 421.128906 215.859375 Z M 421.128906 215.859375 " fill-opacity="1" fill-rule="nonzero"/><path fill="rgb(20.779419%, 20.388794%, 20.388794%)" d="M 368.570312 354.722656 L 473.675781 354.722656 C 477.980469 354.722656 481.484375 351.222656 481.484375 346.910156 L 481.484375 324.738281 C 481.484375 299.734375 461.136719 279.390625 436.140625 279.390625 L 406.105469 279.390625 C 381.101562 279.390625 360.757812 299.734375 360.757812 324.738281 L 360.757812 346.910156 C 360.757812 351.222656 364.257812 354.722656 368.570312 354.722656 Z M 368.570312 354.722656 " fill-opacity="1" fill-rule="nonzero"/><path fill="rgb(100%, 100%, 100%)" d="M 376.382812 324.738281 C 376.382812 308.351562 389.71875 295.015625 406.105469 295.015625 L 436.140625 295.015625 C 452.519531 295.015625 465.863281 308.351562 465.863281 324.738281 L 465.863281 339.097656 L 376.382812 339.097656 Z M 376.382812 324.738281 " fill-opacity="1" fill-rule="nonzero"/><path fill="rgb(20.779419%, 20.388794%, 20.388794%)" d="M 258.539062 557.363281 C 278.882812 557.363281 295.425781 540.8125 295.425781 520.476562 C 295.425781 500.140625 278.882812 483.59375 258.539062 483.59375 C 238.203125 483.59375 221.660156 500.140625 221.660156 520.476562 C 221.660156 540.8125 238.203125 557.363281 258.539062 557.363281 Z M 258.539062 557.363281 " fill-opacity="1" fill-rule="nonzero"/><path fill="rgb(100%, 100%, 100%)" d="M 258.539062 499.210938 C 270.265625 499.210938 279.800781 508.753906 279.800781 520.472656 C 279.800781 532.203125 270.265625 541.734375 258.539062 541.734375 C 246.816406 541.734375 237.285156 532.203125 237.285156 520.472656 C 237.285156 508.761719 246.816406 499.210938 258.539062 499.210938 Z M 258.539062 499.210938 " fill-opacity="1" fill-rule="nonzero"/><path fill="rgb(20.779419%, 20.388794%, 20.388794%)" d="M 273.558594 562.742188 L 243.523438 562.742188 C 218.519531 562.742188 198.175781 583.09375 198.175781 608.089844 L 198.175781 630.269531 C 198.175781 634.574219 201.675781 638.082031 205.988281 638.082031 L 311.085938 638.082031 C 315.398438 638.082031 318.898438 634.574219 318.898438 630.269531 L 318.898438 608.089844 C 318.90625 583.09375 298.5625 562.742188 273.558594 562.742188 Z M 273.558594 562.742188 " fill-opacity="1" fill-rule="nonzero"/><path fill="rgb(100%, 100%, 100%)" d="M 303.28125 622.457031 L 213.804688 622.457031 L 213.804688 608.089844 C 213.804688 591.710938 227.144531 578.367188 243.527344 578.367188 L 273.5625 578.367188 C 289.949219 578.367188 303.285156 591.710938 303.285156 608.089844 L 303.285156 622.457031 Z M 303.28125 622.457031 " fill-opacity="1" fill-rule="nonzero"/><path fill="rgb(100%, 72.549438%, 57.249451%)" d="M 314.253906 283.734375 C 314.253906 221.355469 365 170.605469 427.382812 170.605469 C 456.980469 170.605469 483.886719 182.121094 504.058594 200.796875 C 483.378906 178.449219 453.90625 164.347656 421.128906 164.347656 C 358.75 164.347656 308 215.09375 308 277.476562 C 308 310.257812 322.097656 339.734375 344.445312 360.414062 C 325.773438 340.230469 314.253906 313.335938 314.253906 283.734375 Z M 314.253906 283.734375 " fill-opacity="1" fill-rule="nonzero"/><path fill="rgb(100%, 72.549438%, 57.249451%)" d="M 151.671875 567.09375 C 151.671875 504.722656 202.417969 453.964844 264.796875 453.964844 C 294.394531 453.964844 321.292969 465.488281 341.476562 484.164062 C 320.796875 461.8125 291.324219 447.714844 258.539062 447.714844 C 196.171875 447.714844 145.417969 498.453125 145.417969 560.84375 C 145.417969 593.617188 159.515625 623.09375 181.863281 643.773438 C 163.191406 623.59375 151.671875 596.691406 151.671875 567.09375 Z M 151.671875 567.09375 " fill-opacity="1" fill-rule="nonzero"/><path fill="rgb(100%, 72.549438%, 57.249451%)" d="M 476.207031 567.09375 C 476.207031 504.722656 526.957031 453.964844 589.335938 453.964844 C 618.933594 453.964844 645.824219 465.488281 666.015625 484.164062 C 645.335938 461.8125 615.863281 447.714844 583.078125 447.714844 C 520.707031 447.714844 469.960938 498.453125 469.960938 560.84375 C 469.960938 593.617188 484.0625 623.09375 506.410156 643.773438 C 487.722656 623.59375 476.207031 596.691406 476.207031 567.09375 Z M 476.207031 567.09375 " fill-opacity="1" fill-rule="nonzero"/><path fill="rgb(20.779419%, 20.388794%, 20.388794%)" d="M 583.066406 557.363281 C 603.414062 557.363281 619.949219 540.8125 619.949219 520.476562 C 619.949219 500.140625 603.414062 483.59375 583.066406 483.59375 C 562.730469 483.59375 546.195312 500.140625 546.195312 520.476562 C 546.195312 540.8125 562.730469 557.363281 583.066406 557.363281 Z M 583.066406 557.363281 " fill-opacity="1" fill-rule="nonzero"/><path fill="rgb(100%, 100%, 100%)" d="M 583.066406 499.210938 C 594.796875 499.210938 604.328125 508.753906 604.328125 520.472656 C 604.328125 532.203125 594.796875 541.734375 583.066406 541.734375 C 571.347656 541.734375 561.816406 532.203125 561.816406 520.472656 C 561.816406 508.761719 571.347656 499.210938 583.066406 499.210938 Z M 583.066406 499.210938 " fill-opacity="1" fill-rule="nonzero"/><path fill="rgb(20.779419%, 20.388794%, 20.388794%)" d="M 598.097656 562.742188 L 568.054688 562.742188 C 543.054688 562.742188 522.707031 583.09375 522.707031 608.089844 L 522.707031 630.269531 C 522.707031 634.574219 526.214844 638.082031 530.519531 638.082031 L 635.625 638.082031 C 639.929688 638.082031 643.4375 634.574219 643.4375 630.269531 L 643.4375 608.089844 C 643.4375 583.09375 623.09375 562.742188 598.097656 562.742188 Z M 598.097656 562.742188 " fill-opacity="1" fill-rule="nonzero"/><path fill="rgb(100%, 100%, 100%)" d="M 627.8125 622.457031 L 538.332031 622.457031 L 538.332031 608.089844 C 538.332031 591.710938 551.675781 578.367188 568.054688 578.367188 L 598.097656 578.367188 C 614.476562 578.367188 627.820312 591.710938 627.820312 608.089844 L 627.820312 622.457031 Z M 627.8125 622.457031 " fill-opacity="1" fill-rule="nonzero"/><path fill="rgb(20.779419%, 20.388794%, 20.388794%)" d="M 190.496094 416.503906 C 204.351562 370.695312 231.234375 330.4375 268.238281 300.082031 C 271.578125 297.34375 276.5 297.84375 279.238281 301.167969 C 281.976562 304.507812 281.480469 309.425781 278.152344 312.167969 C 243.542969 340.546875 218.398438 378.1875 205.445312 421.035156 C 204.425781 424.410156 201.324219 426.585938 197.96875 426.585938 C 197.226562 426.585938 196.464844 426.480469 195.707031 426.246094 C 191.582031 425.003906 189.246094 420.636719 190.496094 416.503906 Z M 190.496094 416.503906 " fill-opacity="1" fill-rule="nonzero"/><path fill="rgb(20.779419%, 20.388794%, 20.388794%)" d="M 561.0625 312.167969 C 557.730469 309.433594 557.242188 304.507812 559.972656 301.167969 C 562.710938 297.84375 567.628906 297.351562 570.972656 300.082031 C 607.984375 330.429688 634.863281 370.695312 648.710938 416.503906 C 649.96875 420.636719 647.625 425 643.5 426.246094 C 642.742188 426.480469 641.988281 426.585938 641.242188 426.585938 C 637.886719 426.585938 634.785156 424.410156 633.761719 421.035156 C 620.808594 378.195312 595.664062 340.546875 561.0625 312.167969 Z M 561.0625 312.167969 " fill-opacity="1" fill-rule="nonzero"/><path fill="rgb(20.779419%, 20.388794%, 20.388794%)" d="M 526.871094 692.277344 C 528.75 696.160156 527.125 700.832031 523.246094 702.714844 C 490.742188 718.4375 454.5 726.75 418.402344 726.75 C 384.855469 726.75 352.265625 719.902344 321.554688 706.402344 C 317.605469 704.65625 315.8125 700.050781 317.542969 696.101562 C 319.28125 692.148438 323.898438 690.378906 327.835938 692.097656 C 356.558594 704.726562 387.03125 711.125 418.398438 711.125 C 452.152344 711.125 486.046875 703.351562 516.425781 688.652344 C 520.3125 686.757812 524.988281 688.398438 526.871094 692.277344 Z M 526.871094 692.277344 " fill-opacity="1" fill-rule="nonzero"/></svg>